<mxfile host="app.diagrams.net" agent="Mozilla/5.0 (Windows NT 10.0; Win64; x64) AppleWebKit/537.36 (KHTML, like Gecko) Chrome/130.0.0.0 Safari/537.36" version="24.8.4">
  <diagram name="Сторінка-1" id="iz9fV3MVoC7VoyGilXBp">
    <mxGraphModel dx="1680" dy="743" grid="1" gridSize="10" guides="1" tooltips="1" connect="1" arrows="1" fold="1" page="1" pageScale="1" pageWidth="827" pageHeight="1169" math="0" shadow="0">
      <root>
        <mxCell id="0" />
        <mxCell id="1" parent="0" />
        <mxCell id="WCecHLLrt9T6HXDWceLx-1" value="Start" style="ellipse;whiteSpace=wrap;html=1;" vertex="1" parent="1">
          <mxGeometry x="70" y="20" width="110" height="40" as="geometry" />
        </mxCell>
        <mxCell id="WCecHLLrt9T6HXDWceLx-2" value="End" style="ellipse;whiteSpace=wrap;html=1;" vertex="1" parent="1">
          <mxGeometry x="222.5" y="920" width="110" height="40" as="geometry" />
        </mxCell>
        <mxCell id="WCecHLLrt9T6HXDWceLx-22" value="" style="edgeStyle=orthogonalEdgeStyle;rounded=0;orthogonalLoop=1;jettySize=auto;html=1;" edge="1" parent="1" source="WCecHLLrt9T6HXDWceLx-3" target="WCecHLLrt9T6HXDWceLx-4">
          <mxGeometry relative="1" as="geometry" />
        </mxCell>
        <mxCell id="WCecHLLrt9T6HXDWceLx-3" value="Initialise arrays of books and availability, choice" style="shape=parallelogram;perimeter=parallelogramPerimeter;whiteSpace=wrap;html=1;fixedSize=1;" vertex="1" parent="1">
          <mxGeometry x="30" y="100" width="190" height="40" as="geometry" />
        </mxCell>
        <mxCell id="WCecHLLrt9T6HXDWceLx-23" value="" style="edgeStyle=orthogonalEdgeStyle;rounded=0;orthogonalLoop=1;jettySize=auto;html=1;" edge="1" parent="1" source="WCecHLLrt9T6HXDWceLx-4" target="WCecHLLrt9T6HXDWceLx-5">
          <mxGeometry relative="1" as="geometry" />
        </mxCell>
        <mxCell id="WCecHLLrt9T6HXDWceLx-4" value="do :&lt;div&gt;&lt;div&gt;output Menu,&lt;/div&gt;&lt;div&gt;&amp;nbsp;1. View books,&lt;/div&gt;&lt;div&gt;&amp;nbsp;2. Borrow a book,&lt;/div&gt;&lt;div&gt;3. Return a book,&lt;/div&gt;&lt;div&gt;4. Exit&lt;/div&gt;&lt;div&gt;input choice&lt;/div&gt;&lt;/div&gt;" style="rhombus;whiteSpace=wrap;html=1;" vertex="1" parent="1">
          <mxGeometry x="45" y="170" width="160" height="150" as="geometry" />
        </mxCell>
        <mxCell id="WCecHLLrt9T6HXDWceLx-13" value="" style="edgeStyle=orthogonalEdgeStyle;rounded=0;orthogonalLoop=1;jettySize=auto;html=1;" edge="1" parent="1" source="WCecHLLrt9T6HXDWceLx-5" target="WCecHLLrt9T6HXDWceLx-9">
          <mxGeometry relative="1" as="geometry" />
        </mxCell>
        <mxCell id="WCecHLLrt9T6HXDWceLx-19" value="YES" style="edgeLabel;html=1;align=center;verticalAlign=middle;resizable=0;points=[];" vertex="1" connectable="0" parent="WCecHLLrt9T6HXDWceLx-13">
          <mxGeometry x="-0.0396" y="-1" relative="1" as="geometry">
            <mxPoint as="offset" />
          </mxGeometry>
        </mxCell>
        <mxCell id="WCecHLLrt9T6HXDWceLx-24" value="" style="edgeStyle=orthogonalEdgeStyle;rounded=0;orthogonalLoop=1;jettySize=auto;html=1;" edge="1" parent="1" source="WCecHLLrt9T6HXDWceLx-5" target="WCecHLLrt9T6HXDWceLx-6">
          <mxGeometry relative="1" as="geometry" />
        </mxCell>
        <mxCell id="WCecHLLrt9T6HXDWceLx-34" value="NO" style="edgeLabel;html=1;align=center;verticalAlign=middle;resizable=0;points=[];" vertex="1" connectable="0" parent="WCecHLLrt9T6HXDWceLx-24">
          <mxGeometry x="-0.0698" y="-2" relative="1" as="geometry">
            <mxPoint as="offset" />
          </mxGeometry>
        </mxCell>
        <mxCell id="WCecHLLrt9T6HXDWceLx-5" value="choice == 1" style="rhombus;whiteSpace=wrap;html=1;" vertex="1" parent="1">
          <mxGeometry x="85" y="360" width="80" height="80" as="geometry" />
        </mxCell>
        <mxCell id="WCecHLLrt9T6HXDWceLx-25" value="" style="edgeStyle=orthogonalEdgeStyle;rounded=0;orthogonalLoop=1;jettySize=auto;html=1;" edge="1" parent="1" source="WCecHLLrt9T6HXDWceLx-6" target="WCecHLLrt9T6HXDWceLx-7">
          <mxGeometry relative="1" as="geometry" />
        </mxCell>
        <mxCell id="WCecHLLrt9T6HXDWceLx-35" value="NO" style="edgeLabel;html=1;align=center;verticalAlign=middle;resizable=0;points=[];" vertex="1" connectable="0" parent="WCecHLLrt9T6HXDWceLx-25">
          <mxGeometry x="0.1129" y="-2" relative="1" as="geometry">
            <mxPoint as="offset" />
          </mxGeometry>
        </mxCell>
        <mxCell id="WCecHLLrt9T6HXDWceLx-33" value="" style="edgeStyle=orthogonalEdgeStyle;rounded=0;orthogonalLoop=1;jettySize=auto;html=1;" edge="1" parent="1" source="WCecHLLrt9T6HXDWceLx-6" target="WCecHLLrt9T6HXDWceLx-32">
          <mxGeometry relative="1" as="geometry" />
        </mxCell>
        <mxCell id="WCecHLLrt9T6HXDWceLx-37" value="YES" style="edgeLabel;html=1;align=center;verticalAlign=middle;resizable=0;points=[];" vertex="1" connectable="0" parent="WCecHLLrt9T6HXDWceLx-33">
          <mxGeometry x="0.1836" y="2" relative="1" as="geometry">
            <mxPoint as="offset" />
          </mxGeometry>
        </mxCell>
        <mxCell id="WCecHLLrt9T6HXDWceLx-6" value="choice == 2 or choice == 3" style="rhombus;whiteSpace=wrap;html=1;" vertex="1" parent="1">
          <mxGeometry x="67.5" y="505" width="115" height="80" as="geometry" />
        </mxCell>
        <mxCell id="WCecHLLrt9T6HXDWceLx-26" value="" style="edgeStyle=orthogonalEdgeStyle;rounded=0;orthogonalLoop=1;jettySize=auto;html=1;" edge="1" parent="1" source="WCecHLLrt9T6HXDWceLx-7" target="WCecHLLrt9T6HXDWceLx-8">
          <mxGeometry relative="1" as="geometry" />
        </mxCell>
        <mxCell id="WCecHLLrt9T6HXDWceLx-36" value="NO" style="edgeLabel;html=1;align=center;verticalAlign=middle;resizable=0;points=[];" vertex="1" connectable="0" parent="WCecHLLrt9T6HXDWceLx-26">
          <mxGeometry x="-0.146" y="-1" relative="1" as="geometry">
            <mxPoint as="offset" />
          </mxGeometry>
        </mxCell>
        <mxCell id="WCecHLLrt9T6HXDWceLx-74" value="" style="edgeStyle=orthogonalEdgeStyle;rounded=0;orthogonalLoop=1;jettySize=auto;html=1;" edge="1" parent="1" source="WCecHLLrt9T6HXDWceLx-7" target="WCecHLLrt9T6HXDWceLx-73">
          <mxGeometry relative="1" as="geometry" />
        </mxCell>
        <mxCell id="WCecHLLrt9T6HXDWceLx-7" value="choice != 4" style="rhombus;whiteSpace=wrap;html=1;" vertex="1" parent="1">
          <mxGeometry x="77.5" y="780" width="95" height="80" as="geometry" />
        </mxCell>
        <mxCell id="WCecHLLrt9T6HXDWceLx-76" value="" style="edgeStyle=orthogonalEdgeStyle;rounded=0;orthogonalLoop=1;jettySize=auto;html=1;" edge="1" parent="1" source="WCecHLLrt9T6HXDWceLx-8" target="WCecHLLrt9T6HXDWceLx-2">
          <mxGeometry relative="1" as="geometry" />
        </mxCell>
        <mxCell id="WCecHLLrt9T6HXDWceLx-8" value="choice == 4" style="rhombus;whiteSpace=wrap;html=1;" vertex="1" parent="1">
          <mxGeometry x="85" y="900" width="80" height="80" as="geometry" />
        </mxCell>
        <mxCell id="WCecHLLrt9T6HXDWceLx-14" value="" style="edgeStyle=orthogonalEdgeStyle;rounded=0;orthogonalLoop=1;jettySize=auto;html=1;" edge="1" parent="1" source="WCecHLLrt9T6HXDWceLx-9" target="WCecHLLrt9T6HXDWceLx-10">
          <mxGeometry relative="1" as="geometry" />
        </mxCell>
        <mxCell id="WCecHLLrt9T6HXDWceLx-9" value="Output List of books" style="shape=parallelogram;perimeter=parallelogramPerimeter;whiteSpace=wrap;html=1;fixedSize=1;" vertex="1" parent="1">
          <mxGeometry x="205" y="380" width="135" height="40" as="geometry" />
        </mxCell>
        <mxCell id="WCecHLLrt9T6HXDWceLx-10" value="available[i]" style="rhombus;whiteSpace=wrap;html=1;" vertex="1" parent="1">
          <mxGeometry x="380" y="370" width="90" height="60" as="geometry" />
        </mxCell>
        <mxCell id="WCecHLLrt9T6HXDWceLx-11" value="Output available" style="shape=parallelogram;perimeter=parallelogramPerimeter;whiteSpace=wrap;html=1;fixedSize=1;" vertex="1" parent="1">
          <mxGeometry x="500" y="340" width="130" height="30" as="geometry" />
        </mxCell>
        <mxCell id="WCecHLLrt9T6HXDWceLx-12" value="Output unavailable" style="shape=parallelogram;perimeter=parallelogramPerimeter;whiteSpace=wrap;html=1;fixedSize=1;" vertex="1" parent="1">
          <mxGeometry x="490" y="430" width="130" height="30" as="geometry" />
        </mxCell>
        <mxCell id="WCecHLLrt9T6HXDWceLx-15" value="" style="endArrow=classic;html=1;rounded=0;entryX=0;entryY=0.5;entryDx=0;entryDy=0;exitX=0.5;exitY=0;exitDx=0;exitDy=0;" edge="1" parent="1" source="WCecHLLrt9T6HXDWceLx-10" target="WCecHLLrt9T6HXDWceLx-11">
          <mxGeometry width="50" height="50" relative="1" as="geometry">
            <mxPoint x="300" y="420" as="sourcePoint" />
            <mxPoint x="350" y="370" as="targetPoint" />
            <Array as="points">
              <mxPoint x="425" y="355" />
            </Array>
          </mxGeometry>
        </mxCell>
        <mxCell id="WCecHLLrt9T6HXDWceLx-17" value="YES" style="edgeLabel;html=1;align=center;verticalAlign=middle;resizable=0;points=[];" vertex="1" connectable="0" parent="WCecHLLrt9T6HXDWceLx-15">
          <mxGeometry x="0.0602" y="1" relative="1" as="geometry">
            <mxPoint as="offset" />
          </mxGeometry>
        </mxCell>
        <mxCell id="WCecHLLrt9T6HXDWceLx-16" value="" style="endArrow=classic;html=1;rounded=0;entryX=0;entryY=0.5;entryDx=0;entryDy=0;exitX=0.5;exitY=1;exitDx=0;exitDy=0;" edge="1" parent="1" source="WCecHLLrt9T6HXDWceLx-10" target="WCecHLLrt9T6HXDWceLx-12">
          <mxGeometry width="50" height="50" relative="1" as="geometry">
            <mxPoint x="435" y="380" as="sourcePoint" />
            <mxPoint x="520" y="365" as="targetPoint" />
            <Array as="points">
              <mxPoint x="425" y="445" />
            </Array>
          </mxGeometry>
        </mxCell>
        <mxCell id="WCecHLLrt9T6HXDWceLx-18" value="NO" style="edgeLabel;html=1;align=center;verticalAlign=middle;resizable=0;points=[];" vertex="1" connectable="0" parent="WCecHLLrt9T6HXDWceLx-16">
          <mxGeometry x="0.1558" y="2" relative="1" as="geometry">
            <mxPoint as="offset" />
          </mxGeometry>
        </mxCell>
        <mxCell id="WCecHLLrt9T6HXDWceLx-21" value="" style="endArrow=classic;html=1;rounded=0;entryX=0.5;entryY=0;entryDx=0;entryDy=0;" edge="1" parent="1" target="WCecHLLrt9T6HXDWceLx-3">
          <mxGeometry width="50" height="50" relative="1" as="geometry">
            <mxPoint x="125" y="61" as="sourcePoint" />
            <mxPoint x="350" y="150" as="targetPoint" />
          </mxGeometry>
        </mxCell>
        <mxCell id="WCecHLLrt9T6HXDWceLx-28" value="" style="endArrow=classic;html=1;rounded=0;entryX=1;entryY=0.5;entryDx=0;entryDy=0;" edge="1" parent="1" target="WCecHLLrt9T6HXDWceLx-4">
          <mxGeometry width="50" height="50" relative="1" as="geometry">
            <mxPoint x="670" y="400" as="sourcePoint" />
            <mxPoint x="350" y="260" as="targetPoint" />
            <Array as="points">
              <mxPoint x="670" y="240" />
            </Array>
          </mxGeometry>
        </mxCell>
        <mxCell id="WCecHLLrt9T6HXDWceLx-30" value="" style="endArrow=none;html=1;rounded=0;exitX=1;exitY=0.5;exitDx=0;exitDy=0;" edge="1" parent="1" source="WCecHLLrt9T6HXDWceLx-12">
          <mxGeometry width="50" height="50" relative="1" as="geometry">
            <mxPoint x="300" y="420" as="sourcePoint" />
            <mxPoint x="670" y="400" as="targetPoint" />
            <Array as="points">
              <mxPoint x="670" y="445" />
            </Array>
          </mxGeometry>
        </mxCell>
        <mxCell id="WCecHLLrt9T6HXDWceLx-31" value="" style="endArrow=none;html=1;rounded=0;exitX=1;exitY=0.5;exitDx=0;exitDy=0;" edge="1" parent="1" source="WCecHLLrt9T6HXDWceLx-11">
          <mxGeometry width="50" height="50" relative="1" as="geometry">
            <mxPoint x="300" y="420" as="sourcePoint" />
            <mxPoint x="670" y="355" as="targetPoint" />
          </mxGeometry>
        </mxCell>
        <mxCell id="WCecHLLrt9T6HXDWceLx-45" value="" style="edgeStyle=orthogonalEdgeStyle;rounded=0;orthogonalLoop=1;jettySize=auto;html=1;" edge="1" parent="1" source="WCecHLLrt9T6HXDWceLx-32" target="WCecHLLrt9T6HXDWceLx-41">
          <mxGeometry relative="1" as="geometry" />
        </mxCell>
        <mxCell id="WCecHLLrt9T6HXDWceLx-32" value="input booknumber" style="shape=parallelogram;perimeter=parallelogramPerimeter;whiteSpace=wrap;html=1;fixedSize=1;" vertex="1" parent="1">
          <mxGeometry x="212.5" y="525" width="127.5" height="40" as="geometry" />
        </mxCell>
        <mxCell id="WCecHLLrt9T6HXDWceLx-46" value="" style="edgeStyle=orthogonalEdgeStyle;rounded=0;orthogonalLoop=1;jettySize=auto;html=1;" edge="1" parent="1" source="WCecHLLrt9T6HXDWceLx-41" target="WCecHLLrt9T6HXDWceLx-42">
          <mxGeometry relative="1" as="geometry" />
        </mxCell>
        <mxCell id="WCecHLLrt9T6HXDWceLx-66" value="NO" style="edgeLabel;html=1;align=center;verticalAlign=middle;resizable=0;points=[];" vertex="1" connectable="0" parent="WCecHLLrt9T6HXDWceLx-46">
          <mxGeometry x="-0.3922" y="1" relative="1" as="geometry">
            <mxPoint as="offset" />
          </mxGeometry>
        </mxCell>
        <mxCell id="WCecHLLrt9T6HXDWceLx-41" value="choice == 2 and isAvailable" style="rhombus;whiteSpace=wrap;html=1;" vertex="1" parent="1">
          <mxGeometry x="375" y="505" width="115" height="80" as="geometry" />
        </mxCell>
        <mxCell id="WCecHLLrt9T6HXDWceLx-47" value="" style="edgeStyle=orthogonalEdgeStyle;rounded=0;orthogonalLoop=1;jettySize=auto;html=1;" edge="1" parent="1" source="WCecHLLrt9T6HXDWceLx-42" target="WCecHLLrt9T6HXDWceLx-43">
          <mxGeometry relative="1" as="geometry" />
        </mxCell>
        <mxCell id="WCecHLLrt9T6HXDWceLx-65" value="NO" style="edgeLabel;html=1;align=center;verticalAlign=middle;resizable=0;points=[];" vertex="1" connectable="0" parent="WCecHLLrt9T6HXDWceLx-47">
          <mxGeometry x="-0.1441" y="1" relative="1" as="geometry">
            <mxPoint as="offset" />
          </mxGeometry>
        </mxCell>
        <mxCell id="WCecHLLrt9T6HXDWceLx-42" value="choice == 3 and !isAvailable" style="rhombus;whiteSpace=wrap;html=1;" vertex="1" parent="1">
          <mxGeometry x="525" y="505" width="115" height="80" as="geometry" />
        </mxCell>
        <mxCell id="WCecHLLrt9T6HXDWceLx-61" value="" style="edgeStyle=orthogonalEdgeStyle;rounded=0;orthogonalLoop=1;jettySize=auto;html=1;" edge="1" parent="1" source="WCecHLLrt9T6HXDWceLx-43" target="WCecHLLrt9T6HXDWceLx-53">
          <mxGeometry relative="1" as="geometry" />
        </mxCell>
        <mxCell id="WCecHLLrt9T6HXDWceLx-63" value="YES" style="edgeLabel;html=1;align=center;verticalAlign=middle;resizable=0;points=[];" vertex="1" connectable="0" parent="WCecHLLrt9T6HXDWceLx-61">
          <mxGeometry x="-0.2458" y="1" relative="1" as="geometry">
            <mxPoint as="offset" />
          </mxGeometry>
        </mxCell>
        <mxCell id="WCecHLLrt9T6HXDWceLx-43" value="choise == 2" style="rhombus;whiteSpace=wrap;html=1;" vertex="1" parent="1">
          <mxGeometry x="700" y="505" width="80" height="80" as="geometry" />
        </mxCell>
        <mxCell id="WCecHLLrt9T6HXDWceLx-59" value="" style="edgeStyle=orthogonalEdgeStyle;rounded=0;orthogonalLoop=1;jettySize=auto;html=1;" edge="1" parent="1" source="WCecHLLrt9T6HXDWceLx-48" target="WCecHLLrt9T6HXDWceLx-50">
          <mxGeometry relative="1" as="geometry" />
        </mxCell>
        <mxCell id="WCecHLLrt9T6HXDWceLx-48" value="available[ bookNumber-1 ] = false&amp;nbsp;&lt;span style=&quot;color: rgba(0, 0, 0, 0); font-family: monospace; font-size: 0px; text-align: start; text-wrap-mode: nowrap;&quot;&gt;%3CmxGraphModel%3E%3Croot%3E%3CmxCell%20id%3D%220%22%2F%3E%3CmxCell%20id%3D%221%22%20parent%3D%220%22%2F%3E%3CmxCell%20id%3D%222%22%20value%3D%22%22%20style%3D%22rhombus%3BwhiteSpace%3Dwrap%3Bhtml%3D1%3B%22%20vertex%3D%221%22%20parent%3D%221%22%3E%3CmxGeometry%20x%3D%22385%22%20y%3D%22505%22%20width%3D%2280%22%20height%3D%2280%22%20as%3D%22geometry%22%2F%3E%3C%2FmxCell%3E%3C%2Froot%3E%3C%2FmxGraphModel%3E&lt;/span&gt;" style="rounded=1;whiteSpace=wrap;html=1;" vertex="1" parent="1">
          <mxGeometry x="367.5" y="620" width="130" height="40" as="geometry" />
        </mxCell>
        <mxCell id="WCecHLLrt9T6HXDWceLx-60" value="" style="edgeStyle=orthogonalEdgeStyle;rounded=0;orthogonalLoop=1;jettySize=auto;html=1;" edge="1" parent="1" source="WCecHLLrt9T6HXDWceLx-49" target="WCecHLLrt9T6HXDWceLx-51">
          <mxGeometry relative="1" as="geometry" />
        </mxCell>
        <mxCell id="WCecHLLrt9T6HXDWceLx-49" value="available[ bookNumber-1 ] = true&amp;nbsp;&lt;span style=&quot;color: rgba(0, 0, 0, 0); font-family: monospace; font-size: 0px; text-align: start; text-wrap-mode: nowrap;&quot;&gt;%3CmxGraphModel%3E%3Croot%3E%3CmxCell%20id%3D%220%22%2F%3E%3CmxCell%20id%3D%221%22%20parent%3D%220%22%2F%3E%3CmxCell%20id%3D%222%22%20value%3D%22%22%20style%3D%22rhombus%3BwhiteSpace%3Dwrap%3Bhtml%3D1%3B%22%20vertex%3D%221%22%20parent%3D%221%22%3E%3CmxGeometry%20x%3D%22385%22%20y%3D%22505%22%20width%3D%2280%22%20height%3D%2280%22%20as%3D%22geometry%22%2F%3E%3C%2FmxCell%3E%3C%2Froot%3E%3C%2FmxGraphModel%3E&lt;/span&gt;" style="rounded=1;whiteSpace=wrap;html=1;" vertex="1" parent="1">
          <mxGeometry x="517.5" y="620" width="130" height="40" as="geometry" />
        </mxCell>
        <mxCell id="WCecHLLrt9T6HXDWceLx-50" value="Output : you took&amp;nbsp;&lt;div&gt;the book&lt;/div&gt;" style="shape=parallelogram;perimeter=parallelogramPerimeter;whiteSpace=wrap;html=1;fixedSize=1;" vertex="1" parent="1">
          <mxGeometry x="368.75" y="690" width="127.5" height="40" as="geometry" />
        </mxCell>
        <mxCell id="WCecHLLrt9T6HXDWceLx-51" value="Output : you returned&lt;div&gt;&amp;nbsp;the book&lt;/div&gt;" style="shape=parallelogram;perimeter=parallelogramPerimeter;whiteSpace=wrap;html=1;fixedSize=1;" vertex="1" parent="1">
          <mxGeometry x="512.5" y="690" width="140" height="40" as="geometry" />
        </mxCell>
        <mxCell id="WCecHLLrt9T6HXDWceLx-53" value="Output : the book&lt;div&gt;&amp;nbsp;is unavailable&lt;/div&gt;" style="shape=parallelogram;perimeter=parallelogramPerimeter;whiteSpace=wrap;html=1;fixedSize=1;" vertex="1" parent="1">
          <mxGeometry x="680" y="630" width="120" height="50" as="geometry" />
        </mxCell>
        <mxCell id="WCecHLLrt9T6HXDWceLx-54" value="Output : the book&lt;div&gt;&amp;nbsp;is already in the library&lt;/div&gt;" style="shape=parallelogram;perimeter=parallelogramPerimeter;whiteSpace=wrap;html=1;fixedSize=1;" vertex="1" parent="1">
          <mxGeometry x="810" y="630" width="120" height="50" as="geometry" />
        </mxCell>
        <mxCell id="WCecHLLrt9T6HXDWceLx-56" value="" style="endArrow=classic;html=1;rounded=0;exitX=0.5;exitY=1;exitDx=0;exitDy=0;entryX=0.5;entryY=0;entryDx=0;entryDy=0;" edge="1" parent="1" source="WCecHLLrt9T6HXDWceLx-41" target="WCecHLLrt9T6HXDWceLx-48">
          <mxGeometry width="50" height="50" relative="1" as="geometry">
            <mxPoint x="590" y="640" as="sourcePoint" />
            <mxPoint x="640" y="590" as="targetPoint" />
          </mxGeometry>
        </mxCell>
        <mxCell id="WCecHLLrt9T6HXDWceLx-67" value="YES" style="edgeLabel;html=1;align=center;verticalAlign=middle;resizable=0;points=[];" vertex="1" connectable="0" parent="WCecHLLrt9T6HXDWceLx-56">
          <mxGeometry x="-0.2589" relative="1" as="geometry">
            <mxPoint as="offset" />
          </mxGeometry>
        </mxCell>
        <mxCell id="WCecHLLrt9T6HXDWceLx-57" value="" style="endArrow=classic;html=1;rounded=0;exitX=0.5;exitY=1;exitDx=0;exitDy=0;entryX=0.5;entryY=0;entryDx=0;entryDy=0;" edge="1" parent="1" source="WCecHLLrt9T6HXDWceLx-42" target="WCecHLLrt9T6HXDWceLx-49">
          <mxGeometry width="50" height="50" relative="1" as="geometry">
            <mxPoint x="443" y="595" as="sourcePoint" />
            <mxPoint x="443" y="630" as="targetPoint" />
          </mxGeometry>
        </mxCell>
        <mxCell id="WCecHLLrt9T6HXDWceLx-68" value="YES" style="edgeLabel;html=1;align=center;verticalAlign=middle;resizable=0;points=[];" vertex="1" connectable="0" parent="WCecHLLrt9T6HXDWceLx-57">
          <mxGeometry x="-0.2589" y="1" relative="1" as="geometry">
            <mxPoint as="offset" />
          </mxGeometry>
        </mxCell>
        <mxCell id="WCecHLLrt9T6HXDWceLx-62" value="" style="endArrow=classic;html=1;rounded=0;exitX=1;exitY=0.5;exitDx=0;exitDy=0;entryX=0.5;entryY=0;entryDx=0;entryDy=0;" edge="1" parent="1" source="WCecHLLrt9T6HXDWceLx-43" target="WCecHLLrt9T6HXDWceLx-54">
          <mxGeometry width="50" height="50" relative="1" as="geometry">
            <mxPoint x="590" y="640" as="sourcePoint" />
            <mxPoint x="640" y="590" as="targetPoint" />
            <Array as="points">
              <mxPoint x="870" y="545" />
            </Array>
          </mxGeometry>
        </mxCell>
        <mxCell id="WCecHLLrt9T6HXDWceLx-64" value="NO" style="edgeLabel;html=1;align=center;verticalAlign=middle;resizable=0;points=[];" vertex="1" connectable="0" parent="WCecHLLrt9T6HXDWceLx-62">
          <mxGeometry x="-0.4894" y="1" relative="1" as="geometry">
            <mxPoint as="offset" />
          </mxGeometry>
        </mxCell>
        <mxCell id="WCecHLLrt9T6HXDWceLx-69" value="" style="endArrow=none;html=1;rounded=0;exitX=0.5;exitY=1;exitDx=0;exitDy=0;" edge="1" parent="1" source="WCecHLLrt9T6HXDWceLx-50" target="WCecHLLrt9T6HXDWceLx-4">
          <mxGeometry width="50" height="50" relative="1" as="geometry">
            <mxPoint x="590" y="640" as="sourcePoint" />
            <mxPoint x="840" y="200" as="targetPoint" />
            <Array as="points">
              <mxPoint x="433" y="750" />
              <mxPoint x="940" y="750" />
              <mxPoint x="940" y="240" />
            </Array>
          </mxGeometry>
        </mxCell>
        <mxCell id="WCecHLLrt9T6HXDWceLx-70" value="" style="endArrow=none;html=1;rounded=0;exitX=0.5;exitY=1;exitDx=0;exitDy=0;" edge="1" parent="1" source="WCecHLLrt9T6HXDWceLx-51">
          <mxGeometry width="50" height="50" relative="1" as="geometry">
            <mxPoint x="720" y="700" as="sourcePoint" />
            <mxPoint x="583" y="750" as="targetPoint" />
          </mxGeometry>
        </mxCell>
        <mxCell id="WCecHLLrt9T6HXDWceLx-71" value="" style="endArrow=none;html=1;rounded=0;exitX=0.5;exitY=1;exitDx=0;exitDy=0;" edge="1" parent="1" source="WCecHLLrt9T6HXDWceLx-53">
          <mxGeometry width="50" height="50" relative="1" as="geometry">
            <mxPoint x="720" y="700" as="sourcePoint" />
            <mxPoint x="740" y="750" as="targetPoint" />
          </mxGeometry>
        </mxCell>
        <mxCell id="WCecHLLrt9T6HXDWceLx-72" value="" style="endArrow=none;html=1;rounded=0;exitX=0.5;exitY=1;exitDx=0;exitDy=0;" edge="1" parent="1" source="WCecHLLrt9T6HXDWceLx-54">
          <mxGeometry width="50" height="50" relative="1" as="geometry">
            <mxPoint x="750" y="690" as="sourcePoint" />
            <mxPoint x="870" y="750" as="targetPoint" />
          </mxGeometry>
        </mxCell>
        <mxCell id="WCecHLLrt9T6HXDWceLx-73" value="Output : whong choice" style="shape=parallelogram;perimeter=parallelogramPerimeter;whiteSpace=wrap;html=1;fixedSize=1;" vertex="1" parent="1">
          <mxGeometry x="212.5" y="790" width="120" height="60" as="geometry" />
        </mxCell>
        <mxCell id="WCecHLLrt9T6HXDWceLx-75" value="" style="endArrow=none;html=1;rounded=0;exitX=1;exitY=0.5;exitDx=0;exitDy=0;" edge="1" parent="1" source="WCecHLLrt9T6HXDWceLx-73">
          <mxGeometry width="50" height="50" relative="1" as="geometry">
            <mxPoint x="590" y="820" as="sourcePoint" />
            <mxPoint x="440" y="750" as="targetPoint" />
            <Array as="points">
              <mxPoint x="440" y="820" />
            </Array>
          </mxGeometry>
        </mxCell>
      </root>
    </mxGraphModel>
  </diagram>
</mxfile>
